<svg xmlns="http://www.w3.org/2000/svg"  viewBox="0 0 50 50" width="50px" height="50px"><path d="M 5 7 C 2.25 7 0 9.25 0 12 L 0 38 C 0 40.75 2.25 43 5 43 L 45 43 C 47.75 43 50 40.75 50 38 L 50 12 C 50 9.25 47.75 7 45 7 Z M 5 9 L 45 9 C 46.667969 9 48 10.332031 48 12 L 48 38 C 48 39.667969 46.667969 41 45 41 L 5 41 C 3.332031 41 2 39.667969 2 38 L 2 12 C 2 10.332031 3.332031 9 5 9 Z M 23 15 C 17.488281 15 13 19.488281 13 25 C 13 30.511719 17.488281 35 23 35 L 26 35 C 31.523438 35 36 30.523438 36 25 C 36 19.476563 31.523438 15 26 15 Z M 23 17 C 27.429688 17 31 20.570313 31 25 C 31 29.429688 27.429688 33 23 33 C 18.570313 33 15 29.429688 15 25 C 15 20.570313 18.570313 17 23 17 Z M 21.34375 20.3125 C 19.398438 20.996094 18 22.820313 18 25 C 18 27.179688 19.398438 29.003906 21.34375 29.6875 Z M 24.65625 20.3125 L 24.65625 29.6875 C 26.601563 29.003906 28 27.179688 28 25 C 28 22.820313 26.601563 20.996094 24.65625 20.3125 Z"/></svg>