<svg xmlns="http://www.w3.org/2000/svg"  viewBox="0 0 50 50" width="50px" height="50px"><path d="M 15 10 C 6.730469 10 0 16.730469 0 25 C 0 33.269531 6.730469 40 15 40 C 18.726563 40 22.304688 38.601563 25 36.15625 C 27.65625 38.535156 31.160156 40 35 40 C 43.269531 40 50 33.269531 50 25 C 50 16.730469 43.269531 10 35 10 C 31.160156 10 27.65625 11.464844 25 13.84375 C 22.304688 11.398438 18.726563 10 15 10 Z M 35 12 C 42.167969 12 48 17.832031 48 25 C 48 32.167969 42.167969 38 35 38 C 31.628906 38 28.5625 36.707031 26.25 34.59375 C 26.621094 34.066406 27.058594 33.527344 27.5 33 L 24.78125 33 C 24.527344 32.675781 24.285156 32.347656 24.0625 32 L 28.09375 32 C 28.492188 31.398438 28.792969 30.699219 29.09375 30 L 23 30 C 22.863281 29.671875 22.734375 29.34375 22.625 29 L 29.3125 29 C 29.511719 28.398438 29.585938 27.699219 29.6875 27 L 22.15625 27 C 22.105469 26.671875 22.089844 26.335938 22.0625 26 L 29.90625 26 L 29.90625 24 L 22.0625 24 C 22.089844 23.664063 22.105469 23.328125 22.15625 23 L 29.90625 23 C 29.804688 22.300781 29.699219 21.601563 29.5 21 L 22.625 21 C 22.734375 20.65625 22.863281 20.328125 23 20 L 29 20 C 28.699219 19.300781 28.398438 18.601563 28 18 L 24.0625 18 C 24.285156 17.652344 24.527344 17.324219 24.78125 17 L 27.40625 17 C 27.074219 16.503906 26.65625 15.996094 26.1875 15.5 C 28.507813 13.34375 31.589844 12 35 12 Z"/></svg>